<?xml version="1.0" encoding="UTF-8" standalone="no"?>
<svg width="600px" height="600px" viewBox="0 0 600 600" version="1.1" xmlns="http://www.w3.org/2000/svg" xmlns:xlink="http://www.w3.org/1999/xlink">
    <!-- Generator: Sketch 39.1 (31720) - http://www.bohemiancoding.com/sketch -->
    <title>MgM</title>
    <desc>Created with Sketch.</desc>
    <defs>
        <path d="M33.2510221,0.202991853 C31.9494056,0.97735028 30.4388823,1.73592329 28.550635,2.49205245 C14.5772741,8.08710603 0.0472586474,17.6236105 0.0472586474,17.6236105 C0.0472586474,17.6236105 0.0472586474,34.6215335 12.4864946,48.3928393 C21.2300567,58.0726908 30.9985854,59.2258862 38.1372535,74.426384 C40.6749716,79.8307835 47.5754466,92.9854353 58.7182757,98.4623404 C72.9143933,105.439754 96.0692307,102.27756 96.0692307,102.27756 C96.0692307,102.27756 98.3561693,88.9244096 108.646443,74.426384 C109.786188,72.8206541 110.865158,71.2476845 111.883352,69.702292 L111.883352,0.202991853 L33.2510221,0.202991853 L33.2510221,0.202991853 L33.2510221,0.202991853 Z" id="path-1"></path>
        <path d="M28.550635,52.8023215 C39.2491377,48.5185492 37.8221166,44.1560905 54.9732059,37.2887423 C72.124058,30.4211563 77.9646562,35.6360905 89.779794,31.4393248 C101.594931,27.2425593 103.582168,19.2752657 114.634992,14.3154086 C125.688053,9.35578915 133.420186,9.89874898 138.374982,8.75434943 C143.329541,7.60971215 150.571038,4.5575838 155.525834,1.50545545 C160.48063,-1.54691062 166.297005,-0.228259949 161.242943,7.9912579 C155.582117,17.1970893 157.431616,23.2521373 154.763521,30.5010313 C152.095663,37.7499253 144.091853,41.1835995 142.948622,54.155442 C141.805152,67.127047 125.035219,72.4684498 124.654063,85.4400548 C124.272907,98.4118975 118.937191,110.239103 108.64668,124.736891 C98.3559321,139.234678 96.0692309,152.587829 96.0692309,152.587829 C96.0692309,152.587829 73.0115227,155.548672 58.7182756,148.772847 C50.5522663,144.901525 40.3306246,130.290342 38.137016,124.736891 C31.3795043,107.628902 20.6755394,107.991192 12.6717294,97.6901698 C4.66791934,87.3891475 0.047258592,67.9341173 0.047258592,67.9341173 C0.047258592,67.9341173 14.577274,58.3973751 28.550635,52.8023215" id="path-3"></path>
        <path d="M19.7781559,85.7037631 C18.6456059,84.8873523 -1.04569497,70.406309 0.188322147,51.3627154 C1.45860609,31.7560178 3.78829117,19.2460715 14.4587713,12.3794364 C24.6963243,5.79117522 35.7781208,0.116722098 51.109871,0.116246652 C51.758668,0.116246652 52.4122147,0.126231027 53.0762107,0.146912947 C62.4744212,0.43909912 76.2495072,5.28016399 86.2389304,16.7604291 L86.2389304,85.7037631 L19.7781559,85.7037631 L19.7781559,85.7037631 L19.7781559,85.7037631 Z" id="path-5"></path>
    </defs>
    <g id="Page-1" stroke="none" stroke-width="1" fill="none" fill-rule="evenodd">
        <g id="MgM">
            <rect id="Rectangle-3" fill="#00A396" x="0" y="0" width="600" height="600"></rect>
            <g id="MgM-Teal-(1)" transform="translate(69.000000, 77.000000)">
                <g id="MgM-Teal">
                    <g id="Symbols">
                        <g id="MgM-Teal">
                            <g id="Page-1">
                                <polygon id="Fill-1" fill="#00CCBD" points="221.595157 -7.13169643e-05 47.4582024 113.028997 7.12441924e-05 292.481021 169.87781 425.99042 435.753535 342.155188 459.909354 86.9184298"></polygon>
                                <g id="Group-6" transform="translate(28.735158, 151.895625)">
                                    <path d="M64.298952,98.236741 C47.2024833,111.191468 36.5241663,121.301361 28.5229685,136.925956 C21.4852297,156.937259 0.132870419,230.442941 0.132870419,230.442941 L51.7991584,250.561456 C61.2178781,195.962853 65.1386836,179.520013 67.6144192,168.245989 C67.6144192,168.245989 99.3480073,163.607534 112.555018,139.321493 C116.789535,131.534869 121.188627,120.933603 121.188627,120.933603 L82.1555963,86.7316507 C82.1555963,86.7316507 69.065426,94.6250123 64.298952,98.236741" id="Fill-2" fill="#450063"></path>
                                    <path d="M72.2470728,52.8892312 C82.9455756,48.605459 81.5185544,44.2430002 98.6696438,37.375652 C115.820496,30.508066 121.661094,35.7230002 133.476232,31.5262346 C145.291368,27.329469 147.278606,19.3621755 158.33143,14.4023183 C169.384491,9.44269888 177.116624,9.9856587 182.07142,8.84125915 C187.025978,7.69662187 194.267476,4.64449353 199.222272,1.59236518 C204.177068,-1.4600009 209.993443,-0.141350223 204.939381,8.07816763 C199.278554,17.2839991 201.128054,23.3390471 198.459959,30.587941 C195.792101,37.836835 187.788291,41.2705092 186.64506,54.2423518 C185.50159,67.2139567 168.731657,72.5553596 168.350501,85.5269645 C167.969344,98.4988072 162.633629,110.326012 152.343118,124.8238 C142.05237,139.321588 139.765669,152.674739 139.765669,152.674739 C139.765669,152.674739 116.707961,155.635582 102.414713,148.859757 C94.2487042,144.988435 84.0270625,130.377252 81.8334538,124.8238 C75.0759422,107.715812 64.3719773,108.078102 56.3681673,97.7770795 C48.3643572,87.4760572 43.7436965,68.021027 43.7436965,68.021027 C43.7436965,68.021027 58.2737119,58.4842848 72.2470728,52.8892312" id="Fill-4" fill="#FFE500"></path>
                                </g>
                                <g id="Group-18" transform="translate(72.431595, 151.982535)">
                                    <g id="Group-9" transform="translate(0.000000, 50.310412)">
                                        <g id="Fill-7-Clipped">
                                            <mask id="mask-2" fill="white">
                                                <use xlink:href="#path-1"></use>
                                            </mask>
                                            <g id="path-1"></g>
                                            <path d="M22.4531296,0.202991853 C22.4531296,0.202991853 20.5186123,17.4046436 25.8540898,26.3059517 C31.1893299,35.2072597 38.6200992,34.2399639 48.3375694,44.3486682 C57.5739039,53.9572028 59.854193,66.0941614 64.7237336,71.4327117 C72.7263562,80.2063624 89.0175281,82.6033256 99.4341415,81.3317441 C109.850755,80.0601626 111.883352,79.2973088 111.883352,79.2973088 L95.6232897,111.341923 C95.6232897,111.341923 40.5009458,126.946787 6.95538049,72.9391637 C-10.2631533,45.2180219 -4.98562107,12.4105544 -4.98562107,12.4105544 L22.4531296,0.202991853 L22.4531296,0.202991853 Z" id="Fill-7" fill="#FF8200" mask="url(#mask-2)"></path>
                                        </g>
                                    </g>
                                    <mask id="mask-4" fill="white">
                                        <use xlink:href="#path-3"></use>
                                    </mask>
                                    <use id="Fill-4" fill="#FFE500" xlink:href="#path-3"></use>
                                    <path d="M22.4531296,50.513404 C22.4531296,50.513404 20.5186123,67.7150558 25.8540898,76.6163638 C31.1893299,85.5176719 38.6200992,84.5503761 48.3375694,94.6590804 C57.5739039,104.267615 59.854193,116.404574 64.7237336,121.743124 C72.7263562,130.516775 89.0175281,132.913738 99.4341415,131.642156 C109.850755,130.370575 111.883352,129.607721 111.883352,129.607721 L95.6232897,161.652335 C95.6232897,161.652335 40.5009458,177.257199 6.95538049,123.249576 C-10.2631533,95.5284341 -4.98562107,62.7209666 -4.98562107,62.7209666 L22.4531296,50.513404 L22.4531296,50.513404 Z" id="Fill-7" fill="#FF8200" mask="url(#mask-4)"></path>
                                    <path d="M136.743299,46.0587321 C130.216382,45.0907233 120.788401,48.2365146 118.61284,55.2543416 C116.437042,62.2719308 120.143403,71.7906061 127.516465,74.2106284 C134.889526,76.630413 140.012221,77.4213181 143.108731,75.1783996 C148.120523,71.5486038 153.18171,59.7378014 147.863331,52.3503148 C144.922371,48.2652791 136.743299,46.0587321 136.743299,46.0587321" id="Fill-10" fill="#FF8200" mask="url(#mask-4)"></path>
                                    <path d="M49.4807063,41.9537278 C48.4493278,45.0510235 49.4807063,52.2533236 54.0536334,55.4956306 C58.6265607,58.7381753 67.1219556,58.9476094 71.2021105,56.3219565 C76.537113,52.8887578 78.2519608,46.4039063 77.8708043,41.4450001 C77.4687496,36.2127121 73.8694931,31.2728236 67.9628745,30.7006239 C62.0562561,30.1284241 52.9104016,31.6541318 49.4807063,41.9537278" id="Fill-12" fill="#FF8200" mask="url(#mask-4)"></path>
                                    <path d="M73.7658089,84.2847201 C76.8582818,80.1226621 88.0364956,75.8835818 94.6394073,78.4421966 C101.242319,81.0008116 105.92805,90.3820828 102.520202,97.4182146 C99.1123552,104.454109 90.5924998,108.078912 83.7765679,106.799486 C76.9606361,105.520297 66.098034,94.6047603 73.7658089,84.2847201" id="Fill-14" fill="#FF8200" mask="url(#mask-4)"></path>
                                    <path d="M113.502138,9.97372705 C112.073692,19.8047706 117.503449,24.0878298 121.50476,24.4693755 C125.506073,24.8509213 130.650615,25.0415753 134.27077,21.4177226 C137.890925,17.7938699 139.033445,11.4999101 136.366537,7.68492793 C131.589851,0.851336425 115.026527,-0.51652295 113.502138,9.97372705" id="Fill-16" fill="#FF8200" mask="url(#mask-4)"></path>
                                </g>
                                <g id="Group-61" transform="translate(104.491482, 106.965938)">
                                    <polygon id="Fill-19" fill="#FFFFFF" points="63.9737222 89.7231834 58.9448322 91.8805216 61.4592772 98.1730551 67.3777697 96.8401409"></polygon>
                                    <polygon id="Fill-21" fill="#FFFFFF" points="78.0748002 72.5100495 75.6441859 78.9991802 80.6571647 80.5484223 82.5662716 74.1104022"></polygon>
                                    <polygon id="Fill-23" fill="#FFFFFF" points="22.5782582 114.436556 20.2433485 120.729089 26.3499256 121.627921 27.2478399 115.515344"></polygon>
                                    <polygon id="Fill-25" fill="#FFFFFF" points="0.219242126 106.054816 0.970630873 111.545984 7.01095096 111.545984 7.01095096 105.957349"></polygon>
                                    <polygon id="Fill-27" fill="#FFFFFF" points="49.6882881 159.751759 47.9884016 166.403731 55.2557842 167.841956 56.5130067 161.189984"></polygon>
                                    <polygon id="Fill-29" fill="#FFFFFF" points="75.063807 118.721398 76.3210294 123.637039 83.1490728 122.934091 82.607142 117.642611"></polygon>
                                    <path d="M149.792315,121.19681 C149.792315,121.19681 233.006244,225.346678 235.809703,227.5808 C238.613161,229.814923 241.27152,228.429236 240.845243,224.237224 C237.994524,196.206091 222.951076,84.1495487 222.951076,84.1495487 L149.792315,121.19681 L149.792315,121.19681 Z" id="Fill-31" fill="#FFE500"></path>
                                    <polygon id="Fill-33" fill="#FF8200" points="192.25751 175.950338 190.941393 174.933596 227.185213 127.929298 228.501331 128.94604"></polygon>
                                    <polygon id="Fill-35" fill="#FF8200" points="179.512993 162.844324 178.289492 161.717754 226.41162 109.359929 226.696359 111.507996"></polygon>
                                    <polygon id="Fill-37" fill="#FF8200" points="173.264402 147.553587 172.040903 146.427016 186.66971 130.510496 188.706344 130.752261"></polygon>
                                    <polygon id="Fill-39" fill="#FF8200" points="202.318545 185.785138 201.074383 184.681389 237.282344 143.782298 238.526267 144.885809"></polygon>
                                    <polygon id="Fill-41" fill="#FF8200" points="217.345345 205.284526 216.220399 203.896461 242.386016 157.678314 243.832273 158.498934"></polygon>
                                    <polygon id="Fill-43" fill="#FF8200" points="226.304232 216.290802 225.159812 214.891088 236.960937 192.315228 237.33212 195.194294"></polygon>
                                    <polygon id="Fill-45" fill="#FFFFFF" points="77.3620496 144.271033 74.4885338 149.484779 79.3376511 151.462398 82.0316313 146.967766"></polygon>
                                    <polygon id="Fill-47" fill="#FFFFFF" points="109.853676 63.5258237 108.819923 68.9934575 114.827233 68.9934575 114.827233 63.5258237"></polygon>
                                    <polygon id="Fill-49" fill="#FFFFFF" points="48.1483687 108.551028 45.3710325 114.698551 51.560728 115.597382 53.8956376 112.074324"></polygon>
                                    <polygon id="Fill-51" fill="#FFFFFF" points="92.7750894 80.6526164 93.7772576 86.0099468 99.6285431 84.2208419 99.6285431 78.9990137"></polygon>
                                    <polygon id="Fill-53" fill="#FFFFFF" points="105.563683 8.35525782 122.070962 32.9738739 124.695835 31.1265268 111.362248 5.18189063"></polygon>
                                    <path d="M132.13722,27.8121897 C132.696725,24.4274866 136.376012,0.0156897322 136.376012,0.0156897322 L141.927598,1.18029575 L135.536281,28.56601 L132.13722,27.8121897 L132.13722,27.8121897 Z" id="Fill-55" fill="#FFFFFF"></path>
                                    <polygon id="Fill-57" fill="#FFFFFF" points="141.914037 33.1698053 144.672138 35.1419572 162.873128 9.70985223 157.538126 6.27665357"></polygon>
                                    <path d="M126.527975,82.504504 C127.79826,62.8975687 130.127706,50.38786 140.798425,43.5209873 C151.469142,36.6543522 163.053923,30.7799739 179.415864,31.2887015 C194.708667,31.7639103 221.590526,44.2840788 224.893169,77.854638 C225.915286,88.2438555 225.406839,84.3449572 225.406839,84.3449572 C225.406839,84.3449572 235.817991,83.523148 238.612662,88.4456825 C241.407335,93.3682172 240.009999,102.269525 235.436834,105.321416 C230.863669,108.373306 224.646664,106.844508 221.855554,107.301412 C218.414697,107.864579 217.864217,113.96836 216.000944,115.674025 C214.347604,117.187845 208.37924,121.265036 203.297867,119.269825 C203.297867,119.269825 200.441924,127.356218 195.298569,129.227813 C185.513417,132.788194 180.686385,127.955994 180.686385,127.955994 C180.686385,127.955994 180.539859,133.759769 174.588833,136.857302 C166.120035,141.265641 160.022482,134.822867 160.022482,134.822867 C160.022482,134.822867 156.550278,142.515114 149.690649,142.102427 C142.831021,141.689502 134.821274,126.076792 146.168574,116.881896 C146.168574,116.881896 125.257691,102.111439 126.527975,82.504504" id="Fill-59" fill="#FFFFFF"></path>
                                </g>
                                <g id="Group-64" transform="translate(230.831182, 138.107678)">
                                    <g id="Fill-62-Clipped">
                                        <mask id="mask-6" fill="white">
                                            <use xlink:href="#path-5"></use>
                                        </mask>
                                        <g id="path-3"></g>
                                        <path d="M83.3888095,7.49976328 C83.3888095,7.49976328 89.8280971,20.8669396 83.3489127,27.0524976 C76.8697284,33.2378179 73.6162437,22.5022376 68.0758203,27.4471182 C65.5784739,29.6760111 69.2646484,53.3501528 61.8414786,55.5464776 C56.9215921,57.0020568 53.9870439,57.8126929 49.2493051,49.3483202 C47.0077253,45.3436349 42.9888405,44.0473302 42.2265277,51.3627867 C41.4642147,58.6782432 45.583554,65.5063671 37.9974723,65.8879129 C30.4113908,66.2694586 30.1057532,52.0866539 26.9812205,52.6277119 C21.7267238,53.5374787 26.0619329,63.9490423 25.1561817,73.8685189 C24.250668,83.7879954 17.7700588,86.3330601 9.79830873,85.5804284 C1.82655859,84.8277968 -37.2561053,22.7606427 0.00793185338,-0.51222221 C37.2717315,-23.7850871 70.0492845,-14.6284644 83.3888095,7.49976328" id="Fill-62" fill="#450063" mask="url(#mask-6)"></path>
                                    </g>
                                </g>
                                <g id="Group-135" transform="translate(83.118224, 31.369955)">
                                    <path d="M0.0201621063,275.787835 C0.0201621063,275.787835 2.01286215,251.275006 6.10560351,242.20325 C10.1983449,233.131496 38.4970129,224.072814 44.4098059,219.121278 C50.3225988,214.169978 53.2395736,210.072344 53.2395736,210.072344 C53.2395736,210.072344 58.6771678,210.274884 60.1015767,215.194328 C61.238634,219.121278 60.4886701,225.552404 54.3823304,229.650276 C48.2759907,233.747912 53.2395736,230.105517 53.2395736,230.105517 C53.2395736,230.105517 47.1389335,240.121984 37.4737088,241.374072 C37.4737088,241.374072 38.1429293,248.317492 28.768381,251.276908 L0.0201621063,275.787835 L0.0201621063,275.787835 Z" id="Fill-65" fill="#450063"></path>
                                    <path d="M189.61048,224.279349 C189.493639,220.902252 189.986175,219.514424 195.199825,218.811477 C200.413474,218.108529 204.351378,218.032458 208.919319,218.684294 C214.473516,219.476627 221.915921,220.903441 222.618864,224.860107 C223.654992,230.690505 222.031574,231.269837 217.710377,232.317008 C213.389417,233.364179 206.367114,231.784746 206.367114,231.784746 C206.367114,231.784746 189.996149,235.42928 189.61048,224.279349" id="Fill-67" fill="#FFFFFF"></path>
                                    <path d="M194.398636,236.395839 C193.455601,242.880691 200.468166,244.710684 204.752792,245.787095 C208.905853,246.830462 222.536055,248.965929 225.96575,247.439984 C229.395446,245.914276 232.980453,240.029201 225.852947,236.375871 C218.725203,232.72254 214.087443,234.61553 214.087443,234.61553 C214.087443,234.61553 200.791615,229.202572 197.737376,231.090095 C194.683138,232.977379 194.798316,233.648472 194.398636,236.395839" id="Fill-69" fill="#FFFFFF"></path>
                                    <path d="M211.485201,260.91851 C218.308733,262.161565 231.733988,260.358197 233.535042,258.407203 C234.756643,257.083797 235.214742,255.43376 234.540297,253.098605 C233.476622,249.415559 226.347216,246.725721 221.011975,247.538021 C215.676973,248.350322 215.015826,247.538021 215.015826,247.538021 C215.015826,247.538021 204.706554,244.896916 203.618181,250.237606 C202.530044,255.578059 204.63151,259.669988 211.485201,260.91851" id="Fill-71" fill="#FFFFFF"></path>
                                    <path d="M220.902615,271.767294 C220.902615,271.767294 223.51324,274.964196 229.534799,274.402456 C235.556358,273.840954 240.50878,269.440459 240.490493,266.962671 C240.475057,264.85359 239.733405,261.771984 233.736545,260.906909 C227.73992,260.041834 220.902615,263.848259 219.978578,265.751471 C219.054778,267.654682 219.1037,270.378753 220.902615,271.767294" id="Fill-73" fill="#FFFFFF"></path>
                                    <path d="M254.142472,189.507503 C251.474615,187.980607 246.01256,188.165555 244.130288,196.304009 C242.832218,201.91713 246.135338,208.226779 246.135338,208.226779 C246.135338,208.226779 246.01256,220.718897 252.517867,228.07334 C248.68018,232.926221 255.264093,249.028641 255.264093,249.028641 L261.255492,291.223085 L272.139705,295.150986 C272.139705,295.150986 285.227262,324.753707 287.555048,332.367506 L336.333809,316.866763 C336.333809,316.866763 306.579385,274.082529 300.943019,261.616561 C291.235523,240.147539 277.82143,238.115006 271.164609,227.654234 C270.148429,226.057209 260.387262,215.921167 258.60877,210.580239 C256.830515,205.23955 254.142472,189.507503 254.142472,189.507503" id="Fill-75" fill="#FFFFFF"></path>
                                    <polygon id="Fill-77" fill="#FFFFFF" points="161.838307 0.208435715 157.264667 7.74235982 165.649633 12.3206712 168.074786 4.30868572"></polygon>
                                    <polygon id="Fill-79" fill="#FFFFFF" points="92.101808 31.594271 93.3122468 41.1797465 100.815923 41.1797465 100.815923 32.0637743"></polygon>
                                    <polygon id="Fill-81" fill="#FFFFFF" points="181.970348 47.7969386 178.93392 57.5828146 185.716842 57.5828146 189.273828 51.6858526"></polygon>
                                    <polygon id="Fill-83" fill="#FFFFFF" points="125.988846 35.4884625 125.988846 43.4994971 134.063188 41.5411333 134.063188 33.9625172"></polygon>
                                    <polygon id="Fill-85" fill="#FFFFFF" points="210.302857 33.3824963 204.397663 38.1509863 209.036373 43.8230621 214.80359 39.1042564"></polygon>
                                    <polygon id="Fill-87" fill="#FFFFFF" points="220.9418 77.0944229 219.761758 86.3473236 228.343121 86.3473236 228.343121 77.3316706"></polygon>
                                    <polyline id="Fill-89" fill="#FFFFFF" points="146.081063 55.3669252 148.11366 52.9083917 149.722591 57.6982768 154.210974 58.7578092 150.146019 62.0640636 150.484903 67.184384 145.826958 63.4195614 141.592678 64.183366 143.625038 59.4360335 141.931326 55.8756529"></polyline>
                                    <polygon id="Fill-91" fill="#FFFFFF" points="198.052015 74.4208687 197.105417 68.3798465 201.170373 71.3468698 205.679893 69.20641 205.743537 74.4836277 209.554389 76.7724268 204.346202 79.1249357 202.398385 83.384698 199.797259 78.8933933 194.437797 78.4847471"></polygon>
                                    <polygon id="Fill-93" fill="#FFFFFF" points="108.467074 58.3862478 107.143832 54.3958259 111.147518 55.7439542 115.011328 52.8672657 115.078535 58.4399732 119.009314 61.5370312 113.877358 62.429682 112.166547 67.002288 109.967239 62.2307075 105.360352 61.8795904"></polygon>
                                    <polygon id="Fill-95" fill="#FFFFFF" points="101.55045 84.5506828 95.6452566 89.3191728 100.283966 94.9912487 106.051183 90.2724428"></polygon>
                                    <path d="M52.8333867,210.609526 C52.8333867,210.609526 55.8463035,211.118254 55.4653846,213.661418 C55.0842282,216.20458 51.7179401,220.337399 51.7179401,220.337399 C51.7179401,220.337399 47.3119618,216.556411 47.7306401,216.152994 C48.149556,215.749578 52.8333867,210.609526 52.8333867,210.609526" id="Fill-97" fill="#FFFFFF"></path>
                                    <path d="M211.650441,222.181204 C211.650441,222.181204 211.992888,228.66653 212.170998,230.001584 C212.170998,230.001584 216.795222,230.95533 218.31961,230.001584 C219.843998,229.047838 220.16151,228.263827 219.780353,226.303324 C219.399434,224.343058 217.811401,223.007767 211.650441,222.181204" id="Fill-99" fill="#450063"></path>
                                    <path d="M217.811473,238.139943 C217.811473,238.139943 217.176212,244.62527 217.239856,244.943106 C217.303264,245.260942 223.273764,246.405342 224.988849,245.642488 C226.703697,244.879396 227.33872,243.611143 227.211669,242.020061 C227.084854,240.428742 225.236542,238.394307 222.921344,238.139943 C220.606144,237.885579 217.811473,238.139943 217.811473,238.139943" id="Fill-101" fill="#450063"></path>
                                    <path d="M224.068351,250.983225 L224.068351,257.468552 C224.068351,257.468552 230.022704,257.913569 231.483446,257.087007 C232.944428,256.260443 233.397066,253.399206 232.063137,252.191335 C230.729446,250.983225 224.068351,250.983225 224.068351,250.983225" id="Fill-103" fill="#450063"></path>
                                    <path d="M230.260564,264.716614 L232.835329,270.121014 C232.835329,270.121014 236.612221,268.562025 237.120192,267.624683 C237.628401,266.687578 238.136609,263.89005 235.786501,263.31785 C233.436392,262.745651 230.260564,264.716614 230.260564,264.716614" id="Fill-105" fill="#450063"></path>
                                    <path d="M255.831458,198.687636 L251.347823,199.482821 C251.347823,199.482821 249.823436,193.760585 251.347823,191.853331 C252.872212,189.945841 254.248413,190.121042 254.248413,190.121042 L255.831458,198.687636 L255.831458,198.687636 Z" id="Fill-107" fill="#450063"></path>
                                    <path d="M144.609372,183.443707 C139.262019,187.212333 133.79094,193.177997 137.520574,195.787484 C142.273512,199.112756 144.609372,183.443707 144.609372,183.443707" id="Fill-109" fill="#450063"></path>
                                    <path d="M152.86332,195.407532 C152.86332,195.407532 147.533304,205.627489 149.324383,208.848164 C151.115462,212.068838 154.324775,210.474428 154.585292,208.801808 C155.227676,204.679212 153.046417,197.421047 152.86332,195.407532" id="Fill-111" fill="#450063"></path>
                                    <path d="M140.064894,208.399343 C140.064894,208.399343 135.154744,212.664097 132.955436,218.3773 C130.756128,224.090501 137.561848,225.32262 138.717666,220.735038 C139.578533,217.317767 139.483779,212.448244 140.064894,208.399343" id="Fill-113" fill="#450063"></path>
                                    <polygon id="Fill-115" fill="#FFFFFF" points="161.081385 136.112016 157.599918 143.665671 161.450192 143.472164 163.00664 136.015262"></polygon>
                                    <path d="M168.223994,124.585554 L171.8337,123.438302 L174.356932,131.42604 C174.356932,131.42604 171.738946,133.103177 171.517614,132.53478 C171.296044,131.966147 168.223994,124.585554 168.223994,124.585554" id="Fill-117" fill="#FFFFFF"></path>
                                    <path d="M181.904019,124.117263 L185.75453,123.923994 L185.511825,134.486512 C185.511825,134.486512 182.993106,134.296096 182.38658,133.746955 C181.780055,133.197815 181.904019,124.117263 181.904019,124.117263" id="Fill-119" fill="#FFFFFF"></path>
                                    <polygon id="Fill-121" fill="#FFFFFF" points="187.591348 114.145916 186.778453 116.505081 194.918576 117.642111 194.783449 114.943952"></polygon>
                                    <polygon id="Fill-123" fill="#FFFFFF" points="198.117844 131.843505 196.031814 139.997887 198.558846 140.643781 200.68026 132.908505"></polygon>
                                    <polygon id="Fill-125" fill="#FFFFFF" points="203.14709 120.513261 203.282217 123.211419 213.226006 121.359556 212.031241 118.135077"></polygon>
                                    <polygon id="Fill-127" fill="#FFFFFF" points="172.399688 150.137115 181.15845 143.90116 182.843611 146.714614 174.071789 152.692877"></polygon>
                                    <polygon id="Fill-129" fill="#FFFFFF" points="155.050944 157.500639 163.373452 161.719037 165.032255 158.42253 156.432843 155.109143"></polygon>
                                    <path d="M251.384466,127.148638 C257.250001,126.975814 264.38487,128.314196 263.108411,132.196453 C261.482144,137.143948 251.384466,127.148638 251.384466,127.148638" id="Fill-131" fill="#450063"></path>
                                    <path d="M251.885764,140.185166 C251.885764,140.185166 261.205455,144.654838 261.650019,147.932327 C262.094345,151.209579 258.932765,151.792715 257.846766,150.731756 C255.169884,148.1168 252.836162,141.729891 251.885764,140.185166" id="Fill-133" fill="#450063"></path>
                                </g>
                            </g>
                        </g>
                    </g>
                </g>
            </g>
        </g>
    </g>
</svg>