<svg version="1.1" id="Layer_1" xmlns="http://www.w3.org/2000/svg" x="0" y="0" viewBox="0 0 159 40" xml:space="preserve"><style>.st0{fill:#fff}.st2{fill:#ff9015}.st3{fill:#f3e500}.st5{fill:#1226aa}.st6{fill:#8a1a9b}</style><path class="st0" d="M137.2 30.3c3.7 0 6.5-2.6 6.5-6.6 0-3.9-2.7-6.6-6.4-6.6s-6.5 2.6-6.5 6.6c-.1 3.9 2.7 6.6 6.4 6.6zm14.4.1c3.7 0 6.5-2.6 6.5-6.6 0-3.9-2.7-6.6-6.4-6.6s-6.5 2.6-6.5 6.6c0 3.9 2.7 6.5 6.4 6.6zm0-3.4c-1.9 0-3.3-1.3-3.3-3.2 0-2 1.4-3.2 3.3-3.2s3.3 1.2 3.3 3.2c0 1.9-1.4 3.2-3.3 3.2zM48 23.3c0-2 1.4-3.2 3.3-3.2s3.3 1.2 3.3 3.2c0 1.9-1.4 3.2-3.3 3.2-2 0-3.3-1.3-3.3-3.2zm89.2 3.6c-1.9 0-3.3-1.3-3.3-3.2 0-2 1.4-3.2 3.3-3.2s3.3 1.2 3.3 3.2-1.4 3.2-3.3 3.2zm-9.5-6.3c.7 0 1.3.2 1.8.6l1.6-3.4c-.7-.4-1.5-.6-2.4-.6-1.5 0-2.7.6-3.5 1.9l-.3-1.6h-3.4l.5 2.5v9.9h3.3v-8.1c.4-.7 1.3-1.2 2.4-1.2zm-72.8 9.1h3.4l-.6-2.6.1-15.6h-3.3v7.1c-1-1.1-2.3-1.8-3.9-1.8-3.3 0-5.8 2.6-5.8 6.6 0 3.9 2.5 6.6 5.8 6.6 1.6 0 3-.7 4-1.8l.3 1.5zM72.6 23.4c0-3.9-2.7-6.6-6.3-6.6-3.7 0-6.4 2.6-6.4 6.6 0 4 2.6 6.6 6.8 6.6 1.8 0 3.6-.5 5.1-1.4l-1.2-2.8c-1.2.6-2.5 1-3.8 1-1.7 0-2.9-.7-3.4-1.9h9.2v-1.5zm-9.5-1.2c.4-1.4 1.5-2.2 3.1-2.2 1.7 0 2.8.8 3.1 2.2h-6.2z"/><path fill="#fe3b1f" d="M74.7 29.7l3.3.1.1-14-1-4.3h-2.3z"/><path class="st2" d="M78.1 11.5h-1l1 4.3zM80.3 23.4c0 3.9 2.7 6.6 6.4 6.6.9 0 1.7-.2 2.5-.4l-.7-3.4c-.5.3-1.1.4-1.8.4-1.9 0-3.3-1.3-3.3-3.2 0-2 1.4-3.2 3.3-3.2h.4l-.7-3.4c-3.5.1-6.1 2.7-6.1 6.6z"/><path class="st3" d="M90 23.4c0 1.3-.6 2.2-1.5 2.8l.7 3.4c2.4-.9 4-3.1 4-6.1 0-3.9-2.7-6.6-6.4-6.6h-.3l.7 3.4c1.6.1 2.8 1.3 2.8 3.1zM94.2 17.1l2.4 8.8-1.9-8.8z"/><path fill="#348f41" d="M100.2 27.4l-2.5-10.3h-3l1.9 8.8 1 3.9h5.2l1.6-5.6-1.6-7h-.1z"/><path class="st5" d="M106.3 17.2h-3.5l1.6 7zM107.1 23.5c0 4 2.6 6.5 6.6 6.6l-.7-3.3c-1.2-.2-2.1-.8-2.5-1.8h2.1l-.6-2.6h-1.7c.2-.8.7-1.4 1.3-1.8l-.7-3.2c-2.2.9-3.7 3.1-3.8 6.1z"/><path class="st6" d="M113.5 20.2c1.7 0 2.8.8 3.1 2.2h-4.5l.6 2.6h7.1c.1-.5.2-.9.2-1.5 0-3.9-2.7-6.6-6.3-6.6-.9 0-1.7.2-2.5.4l.7 3.2c.3-.2.9-.3 1.6-.3zM113.9 30.1c1.8 0 3.6-.5 5.1-1.4l-1.2-2.8c-1.2.6-2.5 1-3.8 1-.3 0-.6 0-.9-.1l.7 3.3h.1z"/><path d="M26.4.1l10.2 1-2.8 25.5L28 39.3 2.6 34 0 22.4l14.5-3-3.2-14.6 10-2.1 3.2 14.6L26.4.1zm-8.1 25c.5-.5.7-1.1.5-1.8-.1-.5-.7-.8-1-1-.2-.1-.4-.1-.5-.1-.5 0-1.5.1-1.7.9-.3 1 0 1.9.8 2.1.7.4 1.4.4 1.9-.1zm7.4.8c.4-.6.6-1.3.2-1.9-.4-.6-1-.9-1.7-.9-.5 0-.9.4-1.1.7-.2.2-.3.5-.3.7-.1.5-.1 1.3.6 1.6.9.6 1.9.5 2.3-.2z" fill-rule="evenodd" clip-rule="evenodd" fill="#fff"/></svg>